<svg width="749" height="778" viewBox="0 0 749 778" fill="none" xmlns="http://www.w3.org/2000/svg">
<rect y="448.153" width="38.2051" height="38.2051" rx="19.1026" transform="rotate(-45 0 448.153)" fill="white" fill-opacity="0.1"/>
<rect x="43.2241" y="491.377" width="38.2051" height="38.2051" rx="19.1026" transform="rotate(-45 43.2241 491.377)" fill="white" fill-opacity="0.1"/>
<rect x="86.4482" y="534.602" width="38.2051" height="38.2051" rx="19.1026" transform="rotate(-45 86.4482 534.602)" fill="white" fill-opacity="0.1"/>
<rect x="129.672" y="577.826" width="38.2051" height="38.2051" rx="19.1026" transform="rotate(-45 129.672 577.826)" fill="white" fill-opacity="0.1"/>
<rect x="172.896" y="621.05" width="38.2051" height="38.2051" rx="19.1026" transform="rotate(-45 172.896 621.05)" fill="white" fill-opacity="0.1"/>
<rect x="216.121" y="664.274" width="38.2051" height="38.2051" rx="19.1026" transform="rotate(-45 216.121 664.274)" fill="white" fill-opacity="0.1"/>
<rect x="259.345" y="707.498" width="38.2051" height="38.2051" rx="19.1026" transform="rotate(-45 259.345 707.498)" fill="white" fill-opacity="0.1"/>
<rect x="302.569" y="750.722" width="38.2051" height="38.2051" rx="19.1026" transform="rotate(-45 302.569 750.722)" fill="white" fill-opacity="0.1"/>
<rect x="43.2241" y="404.929" width="38.2051" height="38.2051" rx="19.1026" transform="rotate(-45 43.2241 404.929)" fill="white" fill-opacity="0.1"/>
<rect x="86.4482" y="448.153" width="38.2051" height="38.2051" rx="19.1026" transform="rotate(-45 86.4482 448.153)" fill="white" fill-opacity="0.1"/>
<rect x="129.672" y="491.378" width="38.2051" height="38.2051" rx="19.1026" transform="rotate(-45 129.672 491.378)" fill="white" fill-opacity="0.1"/>
<rect x="172.896" y="534.602" width="38.2051" height="38.2051" rx="19.1026" transform="rotate(-45 172.896 534.602)" fill="white" fill-opacity="0.1"/>
<rect x="216.121" y="577.826" width="38.2051" height="38.2051" rx="19.1026" transform="rotate(-45 216.121 577.826)" fill="white" fill-opacity="0.1"/>
<rect x="259.345" y="621.05" width="38.2051" height="38.2051" rx="19.1026" transform="rotate(-45 259.345 621.05)" fill="white" fill-opacity="0.1"/>
<rect x="302.569" y="664.274" width="38.2051" height="38.2051" rx="19.1026" transform="rotate(-45 302.569 664.274)" fill="white" fill-opacity="0.1"/>
<rect x="345.793" y="707.498" width="38.2051" height="38.2051" rx="19.1026" transform="rotate(-45 345.793 707.498)" fill="white" fill-opacity="0.1"/>
<rect x="86.4482" y="361.705" width="38.2051" height="38.2051" rx="19.1026" transform="rotate(-45 86.4482 361.705)" fill="white" fill-opacity="0.1"/>
<rect x="129.672" y="404.929" width="38.2051" height="38.2051" rx="19.1026" transform="rotate(-45 129.672 404.929)" fill="white" fill-opacity="0.1"/>
<rect x="172.896" y="448.153" width="38.2051" height="38.2051" rx="19.1026" transform="rotate(-45 172.896 448.153)" fill="white" fill-opacity="0.1"/>
<rect x="216.121" y="491.378" width="38.2051" height="38.2051" rx="19.1026" transform="rotate(-45 216.121 491.378)" fill="white" fill-opacity="0.1"/>
<rect x="259.345" y="534.602" width="38.2051" height="38.2051" rx="19.1026" transform="rotate(-45 259.345 534.602)" fill="white" fill-opacity="0.1"/>
<rect x="302.569" y="577.826" width="38.2051" height="38.2051" rx="19.1026" transform="rotate(-45 302.569 577.826)" fill="white" fill-opacity="0.1"/>
<rect x="345.793" y="621.05" width="38.2051" height="38.2051" rx="19.1026" transform="rotate(-45 345.793 621.05)" fill="white" fill-opacity="0.1"/>
<rect x="389.018" y="664.274" width="38.2051" height="38.2051" rx="19.1026" transform="rotate(-45 389.018 664.274)" fill="white" fill-opacity="0.1"/>
<rect x="129.672" y="318.481" width="38.2051" height="38.2051" rx="19.1026" transform="rotate(-45 129.672 318.481)" fill="white" fill-opacity="0.1"/>
<rect x="172.896" y="361.705" width="38.2051" height="38.2051" rx="19.1026" transform="rotate(-45 172.896 361.705)" fill="white" fill-opacity="0.1"/>
<rect x="216.121" y="404.929" width="38.2051" height="38.2051" rx="19.1026" transform="rotate(-45 216.121 404.929)" fill="white" fill-opacity="0.1"/>
<rect x="259.345" y="448.153" width="38.2051" height="38.2051" rx="19.1026" transform="rotate(-45 259.345 448.153)" fill="white" fill-opacity="0.1"/>
<rect x="302.569" y="491.378" width="38.2051" height="38.2051" rx="19.1026" transform="rotate(-45 302.569 491.378)" fill="white" fill-opacity="0.1"/>
<rect x="345.793" y="534.602" width="38.2051" height="38.2051" rx="19.1026" transform="rotate(-45 345.793 534.602)" fill="white" fill-opacity="0.1"/>
<rect x="389.018" y="577.826" width="38.2051" height="38.2051" rx="19.1026" transform="rotate(-45 389.018 577.826)" fill="white" fill-opacity="0.1"/>
<rect x="432.242" y="621.05" width="38.2051" height="38.2051" rx="19.1026" transform="rotate(-45 432.242 621.05)" fill="white" fill-opacity="0.1"/>
<rect x="172.896" y="275.257" width="38.2051" height="38.2051" rx="19.1026" transform="rotate(-45 172.896 275.257)" fill="white" fill-opacity="0.1"/>
<rect x="216.121" y="318.481" width="38.2051" height="38.2051" rx="19.1026" transform="rotate(-45 216.121 318.481)" fill="white" fill-opacity="0.1"/>
<rect x="259.345" y="361.705" width="38.2051" height="38.2051" rx="19.1026" transform="rotate(-45 259.345 361.705)" fill="white" fill-opacity="0.1"/>
<rect x="302.569" y="404.929" width="38.2051" height="38.2051" rx="19.1026" transform="rotate(-45 302.569 404.929)" fill="white" fill-opacity="0.1"/>
<rect x="345.793" y="448.153" width="38.2051" height="38.2051" rx="19.1026" transform="rotate(-45 345.793 448.153)" fill="white" fill-opacity="0.1"/>
<rect x="389.018" y="491.378" width="38.2051" height="38.2051" rx="19.1026" transform="rotate(-45 389.018 491.378)" fill="white" fill-opacity="0.1"/>
<rect x="432.242" y="534.602" width="38.2051" height="38.2051" rx="19.1026" transform="rotate(-45 432.242 534.602)" fill="white" fill-opacity="0.1"/>
<rect x="475.466" y="577.826" width="38.2051" height="38.2051" rx="19.1026" transform="rotate(-45 475.466 577.826)" fill="white" fill-opacity="0.1"/>
<rect x="216.121" y="232.032" width="38.2051" height="38.2051" rx="19.1026" transform="rotate(-45 216.121 232.032)" fill="white" fill-opacity="0.1"/>
<rect x="259.345" y="275.256" width="38.2051" height="38.2051" rx="19.1026" transform="rotate(-45 259.345 275.256)" fill="white" fill-opacity="0.1"/>
<rect x="302.569" y="318.481" width="38.2051" height="38.2051" rx="19.1026" transform="rotate(-45 302.569 318.481)" fill="white" fill-opacity="0.1"/>
<rect x="345.793" y="361.705" width="38.2051" height="38.2051" rx="19.1026" transform="rotate(-45 345.793 361.705)" fill="white" fill-opacity="0.1"/>
<rect x="389.018" y="404.929" width="38.2051" height="38.2051" rx="19.1026" transform="rotate(-45 389.018 404.929)" fill="white" fill-opacity="0.1"/>
<rect x="432.242" y="448.153" width="38.2051" height="38.2051" rx="19.1026" transform="rotate(-45 432.242 448.153)" fill="white" fill-opacity="0.1"/>
<rect x="475.466" y="491.377" width="38.2051" height="38.2051" rx="19.1026" transform="rotate(-45 475.466 491.377)" fill="white" fill-opacity="0.1"/>
<rect x="518.69" y="534.601" width="38.2051" height="38.2051" rx="19.1026" transform="rotate(-45 518.69 534.601)" fill="white" fill-opacity="0.1"/>
<rect x="259.345" y="188.808" width="38.2051" height="38.2051" rx="19.1026" transform="rotate(-45 259.345 188.808)" fill="white" fill-opacity="0.1"/>
<rect x="302.569" y="232.032" width="38.2051" height="38.2051" rx="19.1026" transform="rotate(-45 302.569 232.032)" fill="white" fill-opacity="0.1"/>
<rect x="345.793" y="275.256" width="38.2051" height="38.2051" rx="19.1026" transform="rotate(-45 345.793 275.256)" fill="white" fill-opacity="0.1"/>
<rect x="389.018" y="318.481" width="38.2051" height="38.2051" rx="19.1026" transform="rotate(-45 389.018 318.481)" fill="white" fill-opacity="0.1"/>
<rect x="432.242" y="361.705" width="38.2051" height="38.2051" rx="19.1026" transform="rotate(-45 432.242 361.705)" fill="white" fill-opacity="0.1"/>
<rect x="475.466" y="404.929" width="38.2051" height="38.2051" rx="19.1026" transform="rotate(-45 475.466 404.929)" fill="white" fill-opacity="0.1"/>
<rect x="518.69" y="448.153" width="38.2051" height="38.2051" rx="19.1026" transform="rotate(-45 518.69 448.153)" fill="white" fill-opacity="0.1"/>
<rect x="561.914" y="491.377" width="38.2051" height="38.2051" rx="19.1026" transform="rotate(-45 561.914 491.377)" fill="white" fill-opacity="0.1"/>
<rect x="302.569" y="145.584" width="38.2051" height="38.2051" rx="19.1026" transform="rotate(-45 302.569 145.584)" fill="white" fill-opacity="0.1"/>
<rect x="345.793" y="188.808" width="38.2051" height="38.2051" rx="19.1026" transform="rotate(-45 345.793 188.808)" fill="white" fill-opacity="0.1"/>
<rect x="389.018" y="232.032" width="38.2051" height="38.2051" rx="19.1026" transform="rotate(-45 389.018 232.032)" fill="white" fill-opacity="0.1"/>
<rect x="432.242" y="275.257" width="38.2051" height="38.2051" rx="19.1026" transform="rotate(-45 432.242 275.257)" fill="white" fill-opacity="0.1"/>
<rect x="475.466" y="318.481" width="38.2051" height="38.2051" rx="19.1026" transform="rotate(-45 475.466 318.481)" fill="white" fill-opacity="0.1"/>
<rect x="518.69" y="361.705" width="38.2051" height="38.2051" rx="19.1026" transform="rotate(-45 518.69 361.705)" fill="white" fill-opacity="0.1"/>
<rect x="561.914" y="404.929" width="38.2051" height="38.2051" rx="19.1026" transform="rotate(-45 561.914 404.929)" fill="white" fill-opacity="0.1"/>
<rect x="605.138" y="448.153" width="38.2051" height="38.2051" rx="19.1026" transform="rotate(-45 605.138 448.153)" fill="white" fill-opacity="0.1"/>
<rect x="345.793" y="102.36" width="38.2051" height="38.2051" rx="19.1026" transform="rotate(-45 345.793 102.36)" fill="white" fill-opacity="0.1"/>
<rect x="389.018" y="145.584" width="38.2051" height="38.2051" rx="19.1026" transform="rotate(-45 389.018 145.584)" fill="white" fill-opacity="0.1"/>
<rect x="432.242" y="188.808" width="38.2051" height="38.2051" rx="19.1026" transform="rotate(-45 432.242 188.808)" fill="white" fill-opacity="0.1"/>
<rect x="475.466" y="232.032" width="38.2051" height="38.2051" rx="19.1026" transform="rotate(-45 475.466 232.032)" fill="white" fill-opacity="0.1"/>
<rect x="518.69" y="275.257" width="38.2051" height="38.2051" rx="19.1026" transform="rotate(-45 518.69 275.257)" fill="white" fill-opacity="0.1"/>
<rect x="561.914" y="318.481" width="38.2051" height="38.2051" rx="19.1026" transform="rotate(-45 561.914 318.481)" fill="white" fill-opacity="0.1"/>
<rect x="605.138" y="361.705" width="38.2051" height="38.2051" rx="19.1026" transform="rotate(-45 605.138 361.705)" fill="white" fill-opacity="0.1"/>
<rect x="648.363" y="404.929" width="38.2051" height="38.2051" rx="19.1026" transform="rotate(-45 648.363 404.929)" fill="white" fill-opacity="0.1"/>
<rect x="389.018" y="59.1357" width="38.2051" height="38.2051" rx="19.1026" transform="rotate(-45 389.018 59.1357)" fill="white" fill-opacity="0.1"/>
<rect x="432.242" y="102.36" width="38.2051" height="38.2051" rx="19.1026" transform="rotate(-45 432.242 102.36)" fill="white" fill-opacity="0.1"/>
<rect x="475.466" y="145.584" width="38.2051" height="38.2051" rx="19.1026" transform="rotate(-45 475.466 145.584)" fill="white" fill-opacity="0.1"/>
<rect x="518.69" y="188.808" width="38.2051" height="38.2051" rx="19.1026" transform="rotate(-45 518.69 188.808)" fill="white" fill-opacity="0.1"/>
<rect x="561.914" y="232.032" width="38.2051" height="38.2051" rx="19.1026" transform="rotate(-45 561.914 232.032)" fill="white" fill-opacity="0.1"/>
<rect x="605.138" y="275.257" width="38.2051" height="38.2051" rx="19.1026" transform="rotate(-45 605.138 275.257)" fill="white" fill-opacity="0.1"/>
<rect x="648.363" y="318.481" width="38.2051" height="38.2051" rx="19.1026" transform="rotate(-45 648.363 318.481)" fill="white" fill-opacity="0.1"/>
<rect x="691.587" y="361.705" width="38.2051" height="38.2051" rx="19.1026" transform="rotate(-45 691.587 361.705)" fill="white" fill-opacity="0.1"/>
<rect x="432.242" y="15.9116" width="38.2051" height="38.2051" rx="19.1026" transform="rotate(-45 432.242 15.9116)" fill="white" fill-opacity="0.1"/>
<rect x="475.466" y="59.1357" width="38.2051" height="38.2051" rx="19.1026" transform="rotate(-45 475.466 59.1357)" fill="white" fill-opacity="0.1"/>
<rect x="518.69" y="102.36" width="38.2051" height="38.2051" rx="19.1026" transform="rotate(-45 518.69 102.36)" fill="white" fill-opacity="0.1"/>
<rect x="561.914" y="145.584" width="38.2051" height="38.2051" rx="19.1026" transform="rotate(-45 561.914 145.584)" fill="white" fill-opacity="0.1"/>
<rect x="605.138" y="188.808" width="38.2051" height="38.2051" rx="19.1026" transform="rotate(-45 605.138 188.808)" fill="white" fill-opacity="0.1"/>
<rect x="648.363" y="232.032" width="38.2051" height="38.2051" rx="19.1026" transform="rotate(-45 648.363 232.032)" fill="white" fill-opacity="0.1"/>
<rect x="691.587" y="275.257" width="38.2051" height="38.2051" rx="19.1026" transform="rotate(-45 691.587 275.257)" fill="white" fill-opacity="0.1"/>
<rect x="734.811" y="318.481" width="38.2051" height="38.2051" rx="19.1026" transform="rotate(-45 734.811 318.481)" fill="white" fill-opacity="0.1"/>
<rect x="518.69" y="15.9116" width="38.2051" height="38.2051" rx="19.1026" transform="rotate(-45 518.69 15.9116)" fill="white" fill-opacity="0.1"/>
<rect x="561.914" y="59.1359" width="38.2051" height="38.2051" rx="19.1026" transform="rotate(-45 561.914 59.1359)" fill="white" fill-opacity="0.1"/>
<rect x="605.138" y="102.36" width="38.2051" height="38.2051" rx="19.1026" transform="rotate(-45 605.138 102.36)" fill="white" fill-opacity="0.1"/>
<rect x="648.362" y="145.584" width="38.2051" height="38.2051" rx="19.1026" transform="rotate(-45 648.362 145.584)" fill="white" fill-opacity="0.1"/>
<rect x="691.587" y="188.808" width="38.2051" height="38.2051" rx="19.1026" transform="rotate(-45 691.587 188.808)" fill="white" fill-opacity="0.1"/>
<rect x="734.811" y="232.032" width="38.2051" height="38.2051" rx="19.1026" transform="rotate(-45 734.811 232.032)" fill="white" fill-opacity="0.1"/>
<rect x="605.138" y="15.9117" width="38.2051" height="38.2051" rx="19.1026" transform="rotate(-45 605.138 15.9117)" fill="white" fill-opacity="0.1"/>
<rect x="648.362" y="59.1359" width="38.2051" height="38.2051" rx="19.1026" transform="rotate(-45 648.362 59.1359)" fill="white" fill-opacity="0.1"/>
<rect x="691.587" y="102.36" width="38.2051" height="38.2051" rx="19.1026" transform="rotate(-45 691.587 102.36)" fill="white" fill-opacity="0.1"/>
<rect x="734.811" y="145.584" width="38.2051" height="38.2051" rx="19.1026" transform="rotate(-45 734.811 145.584)" fill="white" fill-opacity="0.1"/>
<rect x="691.586" y="15.9117" width="38.2051" height="38.2051" rx="19.1026" transform="rotate(-45 691.586 15.9117)" fill="white" fill-opacity="0.1"/>
<rect x="734.811" y="59.1359" width="38.2051" height="38.2051" rx="19.1026" transform="rotate(-45 734.811 59.1359)" fill="white" fill-opacity="0.1"/>
</svg>
